<mxfile host="app.diagrams.net" modified="2023-10-12T14:23:23.468Z" agent="Mozilla/5.0 (Windows NT 10.0; Win64; x64) AppleWebKit/537.36 (KHTML, like Gecko) Chrome/117.0.0.0 Safari/537.36" etag="dU0CMdOjEjuKS2ko50u0" version="22.0.4" type="github">
  <diagram id="C5RBs43oDa-KdzZeNtuy" name="Page-1">
    <mxGraphModel dx="1911" dy="1053" grid="0" gridSize="13" guides="0" tooltips="1" connect="0" arrows="1" fold="1" page="1" pageScale="1" pageWidth="827" pageHeight="1169" math="0" shadow="0">
      <root>
        <mxCell id="WIyWlLk6GJQsqaUBKTNV-0" />
        <mxCell id="WIyWlLk6GJQsqaUBKTNV-1" parent="WIyWlLk6GJQsqaUBKTNV-0" />
        <mxCell id="WIyWlLk6GJQsqaUBKTNV-2" value="" style="rounded=0;html=1;jettySize=auto;orthogonalLoop=1;fontSize=11;endArrow=block;endFill=0;endSize=8;strokeWidth=1;shadow=0;labelBackgroundColor=none;edgeStyle=orthogonalEdgeStyle;" parent="WIyWlLk6GJQsqaUBKTNV-1" edge="1">
          <mxGeometry relative="1" as="geometry">
            <mxPoint x="215.04" y="70" as="sourcePoint" />
            <mxPoint x="214.9" y="100" as="targetPoint" />
          </mxGeometry>
        </mxCell>
        <mxCell id="lSWkPtKDwUSZixuNPe9K-104" value="f" style="edgeStyle=orthogonalEdgeStyle;rounded=0;orthogonalLoop=1;jettySize=auto;html=1;entryX=0.993;entryY=0.473;entryDx=0;entryDy=0;entryPerimeter=0;exitX=1.027;exitY=0.51;exitDx=0;exitDy=0;exitPerimeter=0;" parent="WIyWlLk6GJQsqaUBKTNV-1" source="WIyWlLk6GJQsqaUBKTNV-10" target="lSWkPtKDwUSZixuNPe9K-48" edge="1">
          <mxGeometry relative="1" as="geometry">
            <mxPoint x="263.99999999999994" y="1020.02" as="targetPoint" />
            <Array as="points">
              <mxPoint x="645" y="301" />
              <mxPoint x="645" y="1018" />
              <mxPoint x="268" y="1018" />
            </Array>
            <mxPoint x="265.9999999999999" y="369.9999999999999" as="sourcePoint" />
          </mxGeometry>
        </mxCell>
        <mxCell id="lSWkPtKDwUSZixuNPe9K-108" value="F" style="edgeLabel;html=1;align=center;verticalAlign=middle;resizable=0;points=[];fontSize=25;fontStyle=1" parent="lSWkPtKDwUSZixuNPe9K-104" vertex="1" connectable="0">
          <mxGeometry x="-0.7248" y="8" relative="1" as="geometry">
            <mxPoint x="-36" y="-9" as="offset" />
          </mxGeometry>
        </mxCell>
        <mxCell id="WIyWlLk6GJQsqaUBKTNV-10" value="encerrar = &#39;n&quot;" style="rhombus;whiteSpace=wrap;html=1;shadow=0;fontFamily=Helvetica;fontSize=12;align=center;strokeWidth=1;spacing=6;spacingTop=-4;" parent="WIyWlLk6GJQsqaUBKTNV-1" vertex="1">
          <mxGeometry x="160" y="250" width="110" height="100" as="geometry" />
        </mxCell>
        <mxCell id="lSWkPtKDwUSZixuNPe9K-5" value="inicio" style="strokeWidth=2;html=1;shape=mxgraph.flowchart.terminator;whiteSpace=wrap;" parent="WIyWlLk6GJQsqaUBKTNV-1" vertex="1">
          <mxGeometry x="160" y="20" width="110" height="50" as="geometry" />
        </mxCell>
        <mxCell id="lSWkPtKDwUSZixuNPe9K-6" value="encerrar = &#39;n&quot;" style="rounded=1;whiteSpace=wrap;html=1;" parent="WIyWlLk6GJQsqaUBKTNV-1" vertex="1">
          <mxGeometry x="157.5" y="170" width="115" height="60" as="geometry" />
        </mxCell>
        <mxCell id="lSWkPtKDwUSZixuNPe9K-8" value="" style="endArrow=classic;html=1;rounded=0;exitX=0.5;exitY=1;exitDx=0;exitDy=0;" parent="WIyWlLk6GJQsqaUBKTNV-1" source="lSWkPtKDwUSZixuNPe9K-6" edge="1">
          <mxGeometry width="50" height="50" relative="1" as="geometry">
            <mxPoint x="214.75" y="190" as="sourcePoint" />
            <mxPoint x="215.25" y="250" as="targetPoint" />
          </mxGeometry>
        </mxCell>
        <mxCell id="lSWkPtKDwUSZixuNPe9K-9" value="quantidade" style="html=1;strokeWidth=2;shape=manualInput;whiteSpace=wrap;rounded=1;size=26;arcSize=11;" parent="WIyWlLk6GJQsqaUBKTNV-1" vertex="1">
          <mxGeometry x="165" y="450" width="100" height="60" as="geometry" />
        </mxCell>
        <mxCell id="lSWkPtKDwUSZixuNPe9K-10" value="tipo de emtrada" style="html=1;strokeWidth=2;shape=manualInput;whiteSpace=wrap;rounded=1;size=26;arcSize=11;" parent="WIyWlLk6GJQsqaUBKTNV-1" vertex="1">
          <mxGeometry x="165" y="370" width="100" height="60" as="geometry" />
        </mxCell>
        <mxCell id="lSWkPtKDwUSZixuNPe9K-13" value="" style="endArrow=classic;html=1;rounded=0;entryX=0.447;entryY=0.228;entryDx=0;entryDy=0;entryPerimeter=0;" parent="WIyWlLk6GJQsqaUBKTNV-1" target="lSWkPtKDwUSZixuNPe9K-47" edge="1">
          <mxGeometry width="50" height="50" relative="1" as="geometry">
            <mxPoint x="214.58" y="880" as="sourcePoint" />
            <mxPoint x="215.08" y="910" as="targetPoint" />
          </mxGeometry>
        </mxCell>
        <mxCell id="lSWkPtKDwUSZixuNPe9K-109" style="edgeStyle=orthogonalEdgeStyle;rounded=0;orthogonalLoop=1;jettySize=auto;html=1;" parent="WIyWlLk6GJQsqaUBKTNV-1" source="lSWkPtKDwUSZixuNPe9K-20" edge="1">
          <mxGeometry relative="1" as="geometry">
            <mxPoint x="329" y="120" as="targetPoint" />
          </mxGeometry>
        </mxCell>
        <mxCell id="lSWkPtKDwUSZixuNPe9K-20" value="saldo" style="html=1;strokeWidth=2;shape=manualInput;whiteSpace=wrap;rounded=1;size=26;arcSize=11;" parent="WIyWlLk6GJQsqaUBKTNV-1" vertex="1">
          <mxGeometry x="160" y="90" width="110" height="60" as="geometry" />
        </mxCell>
        <mxCell id="lSWkPtKDwUSZixuNPe9K-22" value="" style="endArrow=classic;html=1;rounded=0;" parent="WIyWlLk6GJQsqaUBKTNV-1" edge="1">
          <mxGeometry width="50" height="50" relative="1" as="geometry">
            <mxPoint x="214.75" y="350" as="sourcePoint" />
            <mxPoint x="215" y="380" as="targetPoint" />
          </mxGeometry>
        </mxCell>
        <mxCell id="lSWkPtKDwUSZixuNPe9K-58" value="V" style="edgeLabel;html=1;align=center;verticalAlign=middle;resizable=0;points=[];fontStyle=1;fontSize=21;spacing=1;spacingTop=-11;" parent="lSWkPtKDwUSZixuNPe9K-22" vertex="1" connectable="0">
          <mxGeometry x="0.4741" y="1" relative="1" as="geometry">
            <mxPoint x="-21" as="offset" />
          </mxGeometry>
        </mxCell>
        <mxCell id="lSWkPtKDwUSZixuNPe9K-23" value="" style="endArrow=classic;html=1;rounded=0;" parent="WIyWlLk6GJQsqaUBKTNV-1" edge="1">
          <mxGeometry width="50" height="50" relative="1" as="geometry">
            <mxPoint x="214.75" y="430" as="sourcePoint" />
            <mxPoint x="215" y="460" as="targetPoint" />
          </mxGeometry>
        </mxCell>
        <mxCell id="lSWkPtKDwUSZixuNPe9K-38" value="" style="endArrow=classic;html=1;rounded=0;" parent="WIyWlLk6GJQsqaUBKTNV-1" target="lSWkPtKDwUSZixuNPe9K-39" edge="1">
          <mxGeometry width="50" height="50" relative="1" as="geometry">
            <mxPoint x="215" y="510" as="sourcePoint" />
            <mxPoint x="215" y="520" as="targetPoint" />
          </mxGeometry>
        </mxCell>
        <mxCell id="lSWkPtKDwUSZixuNPe9K-39" value="tipo entrada = 1" style="strokeWidth=2;html=1;shape=mxgraph.flowchart.decision;whiteSpace=wrap;" parent="WIyWlLk6GJQsqaUBKTNV-1" vertex="1">
          <mxGeometry x="165" y="540" width="100" height="100" as="geometry" />
        </mxCell>
        <mxCell id="lSWkPtKDwUSZixuNPe9K-40" value="" style="endArrow=classic;html=1;rounded=0;" parent="WIyWlLk6GJQsqaUBKTNV-1" edge="1">
          <mxGeometry width="50" height="50" relative="1" as="geometry">
            <mxPoint x="214.5" y="640" as="sourcePoint" />
            <mxPoint x="215" y="670" as="targetPoint" />
          </mxGeometry>
        </mxCell>
        <mxCell id="lSWkPtKDwUSZixuNPe9K-56" value="F" style="edgeLabel;html=1;align=center;verticalAlign=middle;resizable=0;points=[];fontSize=19;fontStyle=1" parent="lSWkPtKDwUSZixuNPe9K-40" vertex="1" connectable="0">
          <mxGeometry x="-0.3461" relative="1" as="geometry">
            <mxPoint x="-20" as="offset" />
          </mxGeometry>
        </mxCell>
        <mxCell id="lSWkPtKDwUSZixuNPe9K-41" value="tipo entrada = 2" style="strokeWidth=2;html=1;shape=mxgraph.flowchart.decision;whiteSpace=wrap;" parent="WIyWlLk6GJQsqaUBKTNV-1" vertex="1">
          <mxGeometry x="165" y="670" width="100" height="84" as="geometry" />
        </mxCell>
        <mxCell id="lSWkPtKDwUSZixuNPe9K-42" value="" style="endArrow=classic;html=1;rounded=0;entryX=0.5;entryY=0;entryDx=0;entryDy=0;entryPerimeter=0;exitX=0.5;exitY=0.992;exitDx=0;exitDy=0;exitPerimeter=0;" parent="WIyWlLk6GJQsqaUBKTNV-1" source="lSWkPtKDwUSZixuNPe9K-41" target="lSWkPtKDwUSZixuNPe9K-45" edge="1">
          <mxGeometry width="50" height="50" relative="1" as="geometry">
            <mxPoint x="214.75" y="770" as="sourcePoint" />
            <mxPoint x="215.25" y="830" as="targetPoint" />
            <Array as="points">
              <mxPoint x="215.25" y="810" />
            </Array>
          </mxGeometry>
        </mxCell>
        <mxCell id="lSWkPtKDwUSZixuNPe9K-55" value="&lt;p style=&quot;line-height: 30%;&quot;&gt;F&lt;/p&gt;" style="edgeLabel;html=1;align=center;verticalAlign=middle;resizable=0;points=[];" parent="lSWkPtKDwUSZixuNPe9K-42" vertex="1" connectable="0">
          <mxGeometry x="-0.2859" y="1" relative="1" as="geometry">
            <mxPoint x="-8" as="offset" />
          </mxGeometry>
        </mxCell>
        <mxCell id="lSWkPtKDwUSZixuNPe9K-45" value="saldo" style="strokeWidth=2;html=1;shape=mxgraph.flowchart.display;whiteSpace=wrap;" parent="WIyWlLk6GJQsqaUBKTNV-1" vertex="1">
          <mxGeometry x="168.75" y="850" width="92.5" height="50" as="geometry" />
        </mxCell>
        <mxCell id="lSWkPtKDwUSZixuNPe9K-47" value="encerrar? (s/n)" style="html=1;strokeWidth=2;shape=manualInput;whiteSpace=wrap;rounded=1;size=26;arcSize=11;" parent="WIyWlLk6GJQsqaUBKTNV-1" vertex="1">
          <mxGeometry x="170" y="913" width="100" height="60" as="geometry" />
        </mxCell>
        <mxCell id="lSWkPtKDwUSZixuNPe9K-48" value="&quot;sistema encerrado&quot;" style="strokeWidth=2;html=1;shape=mxgraph.flowchart.display;whiteSpace=wrap;" parent="WIyWlLk6GJQsqaUBKTNV-1" vertex="1">
          <mxGeometry x="165" y="990" width="100" height="60" as="geometry" />
        </mxCell>
        <mxCell id="lSWkPtKDwUSZixuNPe9K-49" value="fim" style="strokeWidth=2;html=1;shape=mxgraph.flowchart.terminator;whiteSpace=wrap;" parent="WIyWlLk6GJQsqaUBKTNV-1" vertex="1">
          <mxGeometry x="166.25" y="1090" width="100" height="50" as="geometry" />
        </mxCell>
        <mxCell id="lSWkPtKDwUSZixuNPe9K-50" value="" style="endArrow=classic;html=1;rounded=0;entryX=0.012;entryY=0.499;entryDx=0;entryDy=0;entryPerimeter=0;exitX=0.003;exitY=0.705;exitDx=0;exitDy=0;exitPerimeter=0;" parent="WIyWlLk6GJQsqaUBKTNV-1" source="lSWkPtKDwUSZixuNPe9K-47" target="WIyWlLk6GJQsqaUBKTNV-10" edge="1">
          <mxGeometry width="50" height="50" relative="1" as="geometry">
            <mxPoint x="169" y="953" as="sourcePoint" />
            <mxPoint x="160" y="300" as="targetPoint" />
            <Array as="points">
              <mxPoint x="84" y="955" />
              <mxPoint x="80" y="300" />
            </Array>
          </mxGeometry>
        </mxCell>
        <mxCell id="lSWkPtKDwUSZixuNPe9K-51" value="&lt;p style=&quot;font-size: 16px; line-height: 0%;&quot;&gt;V&lt;/p&gt;" style="endArrow=classic;html=1;rounded=0;entryX=0;entryY=0.5;entryDx=0;entryDy=0;entryPerimeter=0;fontStyle=1" parent="WIyWlLk6GJQsqaUBKTNV-1" edge="1">
          <mxGeometry x="-0.3783" y="18" width="50" height="50" relative="1" as="geometry">
            <mxPoint x="267" y="710" as="sourcePoint" />
            <mxPoint x="342.25" y="710" as="targetPoint" />
            <Array as="points">
              <mxPoint x="300" y="710" />
            </Array>
            <mxPoint as="offset" />
          </mxGeometry>
        </mxCell>
        <mxCell id="lSWkPtKDwUSZixuNPe9K-54" value="&lt;p style=&quot;font-size: 16px; line-height: 0%;&quot;&gt;V&lt;/p&gt;" style="endArrow=classic;html=1;rounded=0;fontStyle=1" parent="WIyWlLk6GJQsqaUBKTNV-1" edge="1">
          <mxGeometry x="-0.3783" y="18" width="50" height="50" relative="1" as="geometry">
            <mxPoint x="265" y="589.89" as="sourcePoint" />
            <mxPoint x="329" y="590.09" as="targetPoint" />
            <Array as="points">
              <mxPoint x="299" y="590.09" />
            </Array>
            <mxPoint as="offset" />
          </mxGeometry>
        </mxCell>
        <mxCell id="lSWkPtKDwUSZixuNPe9K-61" value="saldo = saldo + quantidade" style="rounded=1;whiteSpace=wrap;html=1;" parent="WIyWlLk6GJQsqaUBKTNV-1" vertex="1">
          <mxGeometry x="338" y="560" width="91" height="60" as="geometry" />
        </mxCell>
        <mxCell id="lSWkPtKDwUSZixuNPe9K-62" value="saldo &amp;gt;=&lt;br&gt;quantidade" style="strokeWidth=2;html=1;shape=mxgraph.flowchart.decision;whiteSpace=wrap;" parent="WIyWlLk6GJQsqaUBKTNV-1" vertex="1">
          <mxGeometry x="342.25" y="672" width="86.75" height="76" as="geometry" />
        </mxCell>
        <mxCell id="lSWkPtKDwUSZixuNPe9K-63" value="&lt;p style=&quot;text-align: center; line-height: 110%;&quot;&gt;&amp;nbsp; &amp;nbsp; &quot;saldo&amp;nbsp; &amp;nbsp;&lt;span style=&quot;background-color: initial; text-align: center;&quot;&gt;insuficiente&quot;&lt;/span&gt;&lt;/p&gt;" style="strokeWidth=1;html=1;shape=mxgraph.flowchart.display;whiteSpace=wrap;align=left;shadow=0;" parent="WIyWlLk6GJQsqaUBKTNV-1" vertex="1">
          <mxGeometry x="346.57" y="764.5" width="78.12" height="42" as="geometry" />
        </mxCell>
        <mxCell id="lSWkPtKDwUSZixuNPe9K-65" value="&lt;p style=&quot;font-size: 16px; line-height: 0%;&quot;&gt;&lt;b&gt;V&lt;/b&gt;&lt;/p&gt;" style="endArrow=classic;html=1;rounded=0;exitX=1.037;exitY=0.495;exitDx=0;exitDy=0;exitPerimeter=0;entryX=0;entryY=0.62;entryDx=0;entryDy=0;entryPerimeter=0;" parent="WIyWlLk6GJQsqaUBKTNV-1" source="lSWkPtKDwUSZixuNPe9K-62" target="lSWkPtKDwUSZixuNPe9K-67" edge="1">
          <mxGeometry x="-0.3783" y="18" width="50" height="50" relative="1" as="geometry">
            <mxPoint x="432" y="690.0000000000001" as="sourcePoint" />
            <mxPoint x="505" y="701.87" as="targetPoint" />
            <Array as="points" />
            <mxPoint as="offset" />
          </mxGeometry>
        </mxCell>
        <mxCell id="lSWkPtKDwUSZixuNPe9K-66" value="&lt;p style=&quot;font-size: 16px; line-height: 0%;&quot;&gt;&lt;br&gt;&lt;/p&gt;" style="endArrow=classic;html=1;rounded=0;" parent="WIyWlLk6GJQsqaUBKTNV-1" edge="1">
          <mxGeometry x="-0.3783" y="18" width="50" height="50" relative="1" as="geometry">
            <mxPoint x="429" y="589.67" as="sourcePoint" />
            <mxPoint x="493" y="589.87" as="targetPoint" />
            <Array as="points">
              <mxPoint x="463" y="589.87" />
            </Array>
            <mxPoint as="offset" />
          </mxGeometry>
        </mxCell>
        <mxCell id="lSWkPtKDwUSZixuNPe9K-67" value="saldo = saldo -&lt;br&gt;quantidade" style="rounded=1;whiteSpace=wrap;html=1;" parent="WIyWlLk6GJQsqaUBKTNV-1" vertex="1">
          <mxGeometry x="508" y="676" width="91" height="56" as="geometry" />
        </mxCell>
        <mxCell id="lSWkPtKDwUSZixuNPe9K-68" value="&quot;saida: +&lt;br&gt;quantidade" style="strokeWidth=2;html=1;shape=mxgraph.flowchart.display;whiteSpace=wrap;" parent="WIyWlLk6GJQsqaUBKTNV-1" vertex="1">
          <mxGeometry x="514" y="764.5" width="77" height="48" as="geometry" />
        </mxCell>
        <mxCell id="lSWkPtKDwUSZixuNPe9K-77" style="edgeStyle=orthogonalEdgeStyle;rounded=0;orthogonalLoop=1;jettySize=auto;html=1;exitX=0.5;exitY=1;exitDx=0;exitDy=0;exitPerimeter=0;" parent="WIyWlLk6GJQsqaUBKTNV-1" source="lSWkPtKDwUSZixuNPe9K-69" edge="1">
          <mxGeometry relative="1" as="geometry">
            <mxPoint x="539.5555555555555" y="618.75" as="targetPoint" />
          </mxGeometry>
        </mxCell>
        <mxCell id="lSWkPtKDwUSZixuNPe9K-69" value="&quot;entrada: +&lt;br&gt;quantidade" style="strokeWidth=2;html=1;shape=mxgraph.flowchart.display;whiteSpace=wrap;" parent="WIyWlLk6GJQsqaUBKTNV-1" vertex="1">
          <mxGeometry x="494" y="561.25" width="91" height="57.5" as="geometry" />
        </mxCell>
        <mxCell id="lSWkPtKDwUSZixuNPe9K-79" value="" style="endArrow=classic;html=1;rounded=0;exitX=0.576;exitY=1.018;exitDx=0;exitDy=0;exitPerimeter=0;" parent="WIyWlLk6GJQsqaUBKTNV-1" edge="1">
          <mxGeometry width="50" height="50" relative="1" as="geometry">
            <mxPoint x="539.6360000000001" y="619.9950000000001" as="sourcePoint" />
            <mxPoint x="224.33333333333334" y="650" as="targetPoint" />
            <Array as="points">
              <mxPoint x="540" y="650" />
              <mxPoint x="377" y="650" />
            </Array>
          </mxGeometry>
        </mxCell>
        <mxCell id="lSWkPtKDwUSZixuNPe9K-87" value="" style="endArrow=classic;html=1;rounded=0;" parent="WIyWlLk6GJQsqaUBKTNV-1" edge="1">
          <mxGeometry width="50" height="50" relative="1" as="geometry">
            <mxPoint x="386" y="807" as="sourcePoint" />
            <mxPoint x="221" y="817" as="targetPoint" />
            <Array as="points">
              <mxPoint x="386" y="820" />
            </Array>
          </mxGeometry>
        </mxCell>
        <mxCell id="lSWkPtKDwUSZixuNPe9K-92" value="" style="endArrow=classic;html=1;rounded=0;exitX=0.565;exitY=0.996;exitDx=0;exitDy=0;exitPerimeter=0;" parent="WIyWlLk6GJQsqaUBKTNV-1" source="lSWkPtKDwUSZixuNPe9K-68" edge="1">
          <mxGeometry width="50" height="50" relative="1" as="geometry">
            <mxPoint x="559" y="806" as="sourcePoint" />
            <mxPoint x="221" y="829" as="targetPoint" />
            <Array as="points">
              <mxPoint x="559" y="832" />
            </Array>
          </mxGeometry>
        </mxCell>
        <mxCell id="lSWkPtKDwUSZixuNPe9K-99" value="" style="endArrow=classic;html=1;rounded=0;entryX=0.5;entryY=0;entryDx=0;entryDy=0;entryPerimeter=0;" parent="WIyWlLk6GJQsqaUBKTNV-1" target="lSWkPtKDwUSZixuNPe9K-63" edge="1">
          <mxGeometry width="50" height="50" relative="1" as="geometry">
            <mxPoint x="385.56" y="746" as="sourcePoint" />
            <mxPoint x="385.56" y="759" as="targetPoint" />
          </mxGeometry>
        </mxCell>
        <mxCell id="lSWkPtKDwUSZixuNPe9K-101" value="F" style="edgeLabel;html=1;align=center;verticalAlign=middle;resizable=0;points=[];fontSize=16;fontStyle=1" parent="lSWkPtKDwUSZixuNPe9K-99" vertex="1" connectable="0">
          <mxGeometry x="-0.0237" y="2" relative="1" as="geometry">
            <mxPoint x="-11" y="-2" as="offset" />
          </mxGeometry>
        </mxCell>
        <mxCell id="wRMl8L-3ksBGkZzLNnt2-1" style="edgeStyle=orthogonalEdgeStyle;rounded=0;orthogonalLoop=1;jettySize=auto;html=1;entryX=1.001;entryY=0.519;entryDx=0;entryDy=0;entryPerimeter=0;" edge="1" parent="WIyWlLk6GJQsqaUBKTNV-1">
          <mxGeometry relative="1" as="geometry">
            <mxPoint x="271.995" y="201.14" as="targetPoint" />
            <mxPoint x="378.38" y="151" as="sourcePoint" />
            <Array as="points">
              <mxPoint x="378" y="201" />
            </Array>
          </mxGeometry>
        </mxCell>
        <mxCell id="wRMl8L-3ksBGkZzLNnt2-0" value="saldo inicial: &quot; +&lt;br&gt;saldo&lt;br&gt;" style="strokeWidth=2;html=1;shape=mxgraph.flowchart.display;whiteSpace=wrap;" vertex="1" parent="WIyWlLk6GJQsqaUBKTNV-1">
          <mxGeometry x="329" y="91" width="100" height="60" as="geometry" />
        </mxCell>
      </root>
    </mxGraphModel>
  </diagram>
</mxfile>
